<?xml version="1.0" encoding="UTF-8" standalone="no"?>
<!-- Created with Inkscape (http://www.inkscape.org/) -->

<svg
   width="478.77057"
   height="209.65352"
   viewBox="0 0 126.67471 55.470826"
   version="1.1"
   id="svg1"
   sodipodi:docname="fuse-logo.svg"
   inkscape:export-filename="../../../development/breautek/fuse/fuse-docs/docs/res/fuse-logo.svg"
   inkscape:export-xdpi="96"
   inkscape:export-ydpi="96"
   inkscape:version="1.3 (0e150ed, 2023-07-21)"
   xmlns:inkscape="http://www.inkscape.org/namespaces/inkscape"
   xmlns:sodipodi="http://sodipodi.sourceforge.net/DTD/sodipodi-0.dtd"
   xmlns="http://www.w3.org/2000/svg"
   xmlns:svg="http://www.w3.org/2000/svg">
  <sodipodi:namedview
     id="namedview1"
     pagecolor="#ffffff"
     bordercolor="#000000"
     borderopacity="0.25"
     inkscape:showpageshadow="2"
     inkscape:pageopacity="0.0"
     inkscape:pagecheckerboard="0"
     inkscape:deskcolor="#d1d1d1"
     inkscape:zoom="1.8067109"
     inkscape:cx="239.38528"
     inkscape:cy="104.88673"
     inkscape:window-width="1392"
     inkscape:window-height="1212"
     inkscape:window-x="0"
     inkscape:window-y="25"
     inkscape:window-maximized="0"
     inkscape:current-layer="svg1" />
  <defs
     id="defs1" />
  <g
     id="layer1"
     transform="translate(-72.129313,-107.73124)">
    <path
       d="m 72.129313,107.73124 h 24.072245 v 10.93886 h -9.858479 v 10.36491 h 8.778098 v 10.39867 h -8.778098 v 22.9581 H 72.129313 Z m 58.340587,9.85848 v 44.80206 h -13.87615 l 0.23634,-3.71381 q -1.418,2.26205 -3.51124,3.40996 -2.05948,1.11414 -4.76043,1.11414 -3.07234,0 -5.09805,-1.08038 -2.02571,-1.08038 -3.00481,-2.86976 -0.945334,-1.78938 -1.181667,-3.71381 -0.236334,-1.9582 -0.236334,-7.73148 v -30.21692 h 13.639811 v 30.48701 q 0,5.2331 0.30386,6.2122 0.33762,0.97909 1.75562,0.97909 1.51929,0 1.78938,-1.01286 0.30386,-1.01285 0.30386,-6.51605 v -30.14939 z m 32.74906,14.31506 h -12.08677 v -2.43086 q 0,-3.1061 -0.37138,-3.91638 -0.33762,-0.84405 -1.75562,-0.84405 -1.1479,0 -1.72186,0.77652 -0.57395,0.74276 -0.57395,2.26205 0,2.05948 0.2701,3.03857 0.30385,0.94534 1.72185,2.09324 1.45177,1.14791 5.90834,3.34243 5.9421,2.90353 7.799,5.46943 1.85691,2.56591 1.85691,7.46138 0,5.46943 -1.418,8.27167 -1.418,2.76848 -4.76043,4.28777 -3.30867,1.48552 -8.00158,1.48552 -5.19933,0 -8.91314,-1.62057 -3.68005,-1.62057 -5.06429,-4.38905 -1.38424,-2.76848 -1.38424,-8.37296 v -2.16076 h 12.08677 v 2.836 q 0,3.61253 0.4389,4.69291 0.47267,1.08038 1.82315,1.08038 1.45176,0 2.02571,-0.709 0.57395,-0.74276 0.57395,-3.07233 0,-3.20739 -0.74276,-4.01767 -0.77652,-0.81029 -7.93405,-4.79419 -6.00962,-3.3762 -7.32633,-6.11091 -1.31672,-2.76848 -1.31672,-6.54981 0,-5.36815 1.418,-7.90029 1.418,-2.56591 4.79419,-3.95014 3.40996,-1.38424 7.90029,-1.38424 4.45657,0 7.56267,1.1479 3.13986,1.11415 4.79419,2.97105 1.6881,1.85691 2.02572,3.44372 0.37138,1.58681 0.37138,4.963 z m 35.58506,8.87938 h -17.65748 v 9.68967 q 0,3.03857 0.4389,3.91638 0.43891,0.87781 1.6881,0.87781 1.55305,0 2.05948,-1.1479 0.54019,-1.18167 0.54019,-4.5241 v -5.90834 h 12.93081 v 3.30867 q 0,4.15272 -0.54019,6.381 -0.50643,2.22829 -2.43086,4.76043 -1.92443,2.53215 -4.89548,3.8151 -2.93728,1.24919 -7.39386,1.24919 -4.32152,0 -7.63019,-1.24919 -3.30867,-1.24919 -5.16557,-3.40995 -1.82314,-2.19453 -2.53214,-4.7942 -0.709,-2.63342 -0.709,-7.63019 v -13.06586 q 0,-5.87457 1.58681,-9.25076 1.58681,-3.40996 5.19933,-5.19934 3.61253,-1.82314 8.30543,-1.82314 5.73953,0 9.45334,2.19452 3.74757,2.16076 5.23309,5.77329 1.51929,3.57876 1.51929,10.09481 z m -13.67358,-7.29257 v -3.27491 q 0,-3.47748 -0.37138,-4.49033 -0.37138,-1.01286 -1.51928,-1.01286 -1.418,0 -1.75562,0.87781 -0.33762,0.84405 -0.33762,4.62538 v 3.27491 z"
       id="text1"
       style="font-size:69.1444px;font-family:Impact;-inkscape-font-specification:Impact;stroke-width:0.264583"
       aria-label="Fuse" />
    <path
       style="fill:#ffff00;stroke-width:0.247176"
       d="m 84.961231,111.37868 -7.635628,0.0868 -3.051818,26.70195 h 4.099062 l -3.081791,21.17318 11.107745,-26.44502 -5.883686,-0.0868 z"
       id="path1" />
  </g>
</svg>
